<svg width="14" height="14" viewBox="0 0 14 14" fill="none" xmlns="http://www.w3.org/2000/svg">
<path d="M6.40925 0.307231C6.58005 -0.103415 7.16177 -0.103417 7.33257 0.30723L8.86966 4.00282C8.94166 4.17594 9.10446 4.29423 9.29136 4.30921L13.2811 4.62906C13.7244 4.6646 13.9042 5.21786 13.5664 5.50719L10.5267 8.11105C10.3843 8.23302 10.3221 8.42441 10.3656 8.60679L11.2943 12.5001C11.3975 12.9327 10.9268 13.2746 10.5473 13.0428L7.13154 10.9565C6.97153 10.8587 6.77029 10.8587 6.61028 10.9565L3.19454 13.0428C2.81499 13.2746 2.34436 12.9327 2.44756 12.5001L3.37625 8.60679C3.41975 8.42441 3.35756 8.23302 3.21517 8.11105L0.175437 5.50719C-0.162331 5.21786 0.0174309 4.6646 0.460758 4.62906L4.45046 4.30921C4.63736 4.29423 4.80016 4.17594 4.87217 4.00282L6.40925 0.307231Z" fill="#343839"/>
</svg>
